<?xml version="1.0" encoding="UTF-8"?>
<svg width="24px" height="24px" viewBox="0 0 24 24" version="1.1" xmlns="http://www.w3.org/2000/svg" xmlns:xlink="http://www.w3.org/1999/xlink">
    <!-- Generator: Sketch 52.2 (67145) - http://www.bohemiancoding.com/sketch -->
    <title>〒</title>
    <desc>Created with Sketch.</desc>
    <g id="Symbols" stroke="none" stroke-width="1" fill="none" fill-rule="evenodd">
        <g id="left-nav---main" transform="translate(-24.000000, -379.000000)" fill="#8F9AA3">
            <g id="left-menu">
                <g id="contact-icon" transform="translate(18.000000, 379.000000)">
                    <g id="〒" transform="translate(6.000000, 0.000000)">
                        <path d="M9.97208077,23.9996178 C9.96515693,23.9998719 9.9582025,24 9.95121951,24 C5.31631098,24 0,18.4857406 0,12.642568 C0,6.79939534 3.87519055,0 12,0 C20.1248095,-4.35799545e-15 24,6.39218097 24,11.642568 C24,16.3085757 21.9707029,20.1055102 16.3429449,21.0059451 C13.4634146,21.4666667 10.9980469,20.0802279 10.9980469,16.2533333 C10.9980469,14.4133333 10.9980469,13.1111111 10.9980469,12.3466667 C10.9980469,12.081737 11.714189,12.024013 12.0262615,12.1734945 C12.2950113,12.01867 12.9963379,12.0667644 12.9963379,12.3177778 L12.9963379,15.8988889 C12.9963379,17.9753776 13.7740048,19.4240166 16.3347192,19.0026855 C20.8555124,18.2588498 22.0045776,15.2423951 22.0045776,11.5046387 C22.0045776,7.25800211 18.721133,2.00134277 12,2.00134277 C5.27886698,2.00134277 2.00494385,7.77695623 2.00494385,12.5030518 C2.00494385,17.193554 6.41941888,21.9321697 9.91842979,22.0032789 C9.94533317,22.001107 9.9725373,22 10,22 C10.5522847,22 11,22.4477153 11,23 C11,23.5522847 10.5522847,24 10,24 C9.99066315,24 9.98135619,23.999872 9.97208077,23.9996178 Z" id="Rectangle-2-Copy-2"></path>
                        <path d="M6,11 L18,11 C18.5522847,11 19,11.4477153 19,12 L19,12 C19,12.5522847 18.5522847,13 18,13 L6,13 C5.44771525,13 5,12.5522847 5,12 L5,12 C5,11.4477153 5.44771525,11 6,11 Z" id="Rectangle-2-Copy"></path>
                        <path d="M6,7 L18,7 C18.5522847,7 19,7.44771525 19,8 L19,8 C19,8.55228475 18.5522847,9 18,9 L6,9 C5.44771525,9 5,8.55228475 5,8 L5,8 C5,7.44771525 5.44771525,7 6,7 Z" id="Rectangle-2"></path>
                    </g>
                </g>
            </g>
        </g>
    </g>
</svg>