<svg width="24px" height="24px" viewBox="0 0 24 24" version="1.1" xmlns="http://www.w3.org/2000/svg" xmlns:xlink="http://www.w3.org/1999/xlink">
	<g id="Symbols" stroke="none" stroke-width="1" fill="" fill-rule="evenodd">
		<g id="left-nav---main" transform="translate(-24.000000, -136.000000)" fill="" class="apply-fill">
				<g id="profile-icon" transform="translate(21.000000, 136.000000)">
					<g id="Group-2" transform="translate(3.000000, 0.000000)">
						<path d="M7.02703725,20.4825651 C7.21318997,19.524824 7.28629817,18.0240955 7.23759522,16.004105 C7.22428323,15.4519808 9.25563369,16.9644564 9.25438466,17.4262541 C9.24376482,21.3526528 8.70059766,23.2378141 7.02099609,23.2378141 C6.19989905,23.2378141 3.59518377,23.4830183 1.26149404,23.9750881 C0.721091734,24.0890345 0.190637273,23.7433237 0.0766908429,23.2029214 C-0.0372555871,22.6625191 0.308455209,22.1320646 0.848857519,22.0181182 C3.1433757,21.534308 5.78027454,21.2749994 6.80365372,21.2415329 C6.87972782,21.0876628 6.95916314,20.8317721 7.02703725,20.4825651 Z" id="Path-2" fill-rule="nonzero"></path>
						<path d="M17.0275099,20.4825651 C17.095384,20.8317721 17.1748193,21.0876628 17.2508934,21.2415329 C18.2742726,21.2749994 20.9111714,21.534308 23.2056896,22.0181182 C23.7460919,22.1320646 24.0918027,22.6625191 23.9778563,23.2029214 C23.8639099,23.7433237 23.3334554,24.0890345 22.7930531,23.9750881 C20.4593634,23.4830183 17.8546481,23.2378141 17.033551,23.2378141 C15.3240199,23.2378141 14.7917853,21.2848692 14.8000987,17.2144102 C14.8009138,16.815314 16.8299696,15.464188 16.8169519,16.004105 C16.768249,18.0240955 16.8413572,19.524824 17.0275099,20.4825651 Z" id="Path-2" fill-rule="nonzero"></path>
						<path d="M12,18 C14.9776524,18 18,13.6421579 18,8.88888889 C18,4.6580714 15.4879462,2 12,2 C8.51205378,2 6,4.6580714 6,8.88888889 C6,13.6421579 9.02234765,18 12,18 Z M12,20 C7.581722,20 4,14.4117364 4,8.88888889 C4,3.36604139 7.581722,0 12,0 C16.418278,0 20,3.36604139 20,8.88888889 C20,14.4117364 16.418278,20 12,20 Z" id="Oval" fill-rule="nonzero"></path>
						<g id="copy" transform="translate(8.000000, 5.000000)">
							<rect id="Rectangle-2-Copy-2" x="3" y="4" width="2" height="6" rx="1"></rect>
							<rect id="Rectangle-2-Copy" x="0" y="4" width="8" height="2" rx="1"></rect>
							<rect id="Rectangle-2" x="0" y="0" width="8" height="2" rx="1"></rect>
						</g>
					</g>
				</g>
			</g>
		</g>
	</g>
</svg>