<svg width="24px" height="24px" viewBox="0 0 24 24" version="1.1" xmlns="http://www.w3.org/2000/svg" xmlns:xlink="http://www.w3.org/1999/xlink">
	<g id="Symbols" stroke="none" stroke-width="1" fill="none" fill-rule="evenodd">
		<g id="left-nav---main" transform="translate(-24.000000, -217.000000)" fill="" class="apply-fill">
				<g id="work-icon" transform="translate(24.000000, 217.000000)">
					<g id="Group-8-Copy-2">
						<path d="M22,6 L2,6 L2,22 L22,22 L22,6 Z M2,0 L22,0 C23.1045695,-2.02906125e-16 24,0.8954305 24,2 L24,22 C24,23.1045695 23.1045695,24 22,24 L2,24 C0.8954305,24 1.3527075e-16,23.1045695 0,22 L0,2 C-1.3527075e-16,0.8954305 0.8954305,2.02906125e-16 2,0 Z M3,2 C2.44771525,2 2,2.44771525 2,3 C2,3.55228475 2.44771525,4 3,4 L7,4 C7.55228475,4 8,3.55228475 8,3 C8,2.44771525 7.55228475,2 7,2 L3,2 Z" id="Rectangle-5-Copy-2" fill-rule="nonzero"></path>
						<g id="Group-6" transform="translate(7.000000, 9.000000)">
							<rect id="Rectangle-2-Copy-2" x="4" y="4" width="2" height="6" rx="1"></rect>
							<rect id="Rectangle-2-Copy" x="0" y="4" width="10" height="2" rx="1"></rect>
							<rect id="Rectangle-2" x="0" y="0" width="10" height="2" rx="1"></rect>
						</g>
					</g>
				</g>
		</g>
	</g>
</svg>