<?xml version="1.0" encoding="UTF-8"?>
<svg width="24px" height="24px" viewBox="0 0 24 24" version="1.1" xmlns="http://www.w3.org/2000/svg" xmlns:xlink="http://www.w3.org/1999/xlink">
    <!-- Generator: Sketch 52.2 (67145) - http://www.bohemiancoding.com/sketch -->
    <title>Group 2 Copy</title>
    <desc>Created with Sketch.</desc>
    <g id="Symbols" stroke="none" stroke-width="1" fill="none" fill-rule="evenodd">
        <g id="left-nav---main" transform="translate(-24.000000, -298.000000)">
            <g id="left-menu">
                <g id="writing-icon" transform="translate(20.000000, 298.000000)">
                    <g id="Group-2-Copy" transform="translate(4.000000, 0.000000)">
                        <path d="M2.18181818,1 C1.52911802,1 1,1.52911802 1,2.18181818 L1,21.8181818 C1,22.470882 1.52911802,23 2.18181818,23 L21.8181818,23 C22.470882,23 23,22.470882 23,21.8181818 L23,2.18181818 C23,1.52911802 22.470882,1 21.8181818,1 L2.18181818,1 Z" id="Rectangle-7" stroke="#8F9AA3" stroke-width="2"></path>
                        <rect id="Rectangle-2-Copy-13" fill="#8F9AA3" x="16" y="4" width="4" height="4" rx="1"></rect>
                        <rect id="Rectangle-2-Copy-16" fill="#8F9AA3" x="16" y="10" width="4" height="2" rx="1"></rect>
                        <rect id="Rectangle-2-Copy-17" fill="#8F9AA3" x="12" y="14" width="8" height="2" rx="1"></rect>
                        <rect id="Rectangle-2-Copy-20" fill="#8F9AA3" x="4" y="18" width="16" height="2" rx="1"></rect>
                        <g id="〒-copy" transform="translate(4.000000, 4.000000)" fill="#8F9AA3">
                            <rect id="Rectangle-2-Copy-2" x="4" y="5" width="2" height="6" rx="1"></rect>
                            <rect id="Rectangle-2-Copy" x="0" y="4" width="10" height="2" rx="1"></rect>
                            <rect id="Rectangle-2" x="0" y="0" width="10" height="2" rx="1"></rect>
                        </g>
                    </g>
                </g>
            </g>
        </g>
    </g>
</svg>